<svg width="22" height="22" viewBox="0 0 22 22" fill="none" xmlns="http://www.w3.org/2000/svg">
<path d="M13.1601 4.01965L14.8249 8.34818C15.0956 9.05209 15.231 9.40404 15.4415 9.70009C15.6281 9.96247 15.8573 10.1917 16.1197 10.3783C16.4157 10.5888 16.7677 10.7241 17.4716 10.9949L21.8001 12.6597L17.4716 14.3245C16.7677 14.5953 16.4157 14.7306 16.1197 14.9411C15.8573 15.1277 15.6281 15.3569 15.4415 15.6193C15.231 15.9154 15.0956 16.2673 14.8249 16.9712L13.1601 21.2997L11.4952 16.9712C11.2245 16.2673 11.0891 15.9154 10.8786 15.6193C10.6921 15.3569 10.4628 15.1277 10.2005 14.9411C9.90441 14.7306 9.55245 14.5953 8.84855 14.3245L4.52002 12.6597L8.84855 10.9949C9.55245 10.7241 9.90441 10.5888 10.2005 10.3783C10.4628 10.1917 10.6921 9.96247 10.8786 9.70009C11.0891 9.40404 11.2245 9.05209 11.4952 8.34819L13.1601 4.01965Z" fill="url(#paint0_linear_799_2256)"/>
<path d="M4.51995 0.180054L5.25987 2.10385C5.3802 2.41669 5.44036 2.57312 5.53392 2.70469C5.61684 2.82131 5.71872 2.92319 5.83534 3.00611C5.96691 3.09967 6.12334 3.15983 6.43618 3.28016L8.35997 4.02008L6.43618 4.76C6.12334 4.88032 5.96691 4.94048 5.83534 5.03404C5.71872 5.11696 5.61684 5.21885 5.53392 5.33546C5.44036 5.46704 5.3802 5.62346 5.25987 5.9363L4.51995 7.8601L3.78003 5.93631C3.65971 5.62346 3.59954 5.46704 3.50599 5.33546C3.42307 5.21885 3.32118 5.11696 3.20457 5.03404C3.07299 4.94048 2.91657 4.88032 2.60372 4.76L0.679932 4.02008L2.60372 3.28016C2.91657 3.15983 3.07299 3.09967 3.20457 3.00611C3.32118 2.92319 3.42307 2.82131 3.50599 2.70469C3.59954 2.57312 3.65971 2.41669 3.78003 2.10385L4.51995 0.180054Z" fill="url(#paint1_linear_799_2256)"/>
<defs>
<linearGradient id="paint0_linear_799_2256" x1="-9.4842" y1="6.36107" x2="8.97076" y2="27.4055" gradientUnits="userSpaceOnUse">
<stop stop-color="#005244"/>
<stop offset="1" stop-color="#D8ABFF"/>
</linearGradient>
<linearGradient id="paint1_linear_799_2256" x1="-5.54417" y1="1.22068" x2="2.65804" y2="10.5738" gradientUnits="userSpaceOnUse">
<stop stop-color="#005244"/>
<stop offset="1" stop-color="#D8ABFF"/>
</linearGradient>
</defs>
</svg>
