<svg width="12" height="12" viewBox="0 0 12 12" fill="none" xmlns="http://www.w3.org/2000/svg">
<path d="M6 0.5C5.27066 1.22935 4.86091 2.21855 4.86091 3.25C4.86091 4.28145 5.27066 5.27065 6 6C6.72935 6.72934 7.71855 7.13909 8.75 7.13909C9.78145 7.13909 10.7707 6.72934 11.5 6C11.5 7.0878 11.1774 8.15116 10.5731 9.05563C9.96874 9.9601 9.10975 10.6651 8.10476 11.0813C7.09977 11.4976 5.9939 11.6065 4.92701 11.3943C3.86011 11.1821 2.8801 10.6583 2.11091 9.88908C1.34173 9.1199 0.817902 8.13989 0.605683 7.07299C0.393465 6.0061 0.502383 4.90023 0.918665 3.89524C1.33495 2.89025 2.0399 2.03126 2.94437 1.42692C3.84884 0.822569 4.9122 0.5 6 0.5Z" stroke="white" stroke-linecap="round" stroke-linejoin="round"/>
</svg>
