<svg width="13" height="14" viewBox="0 0 13 14" fill="none" xmlns="http://www.w3.org/2000/svg">
<path d="M1.70654 5.52006L3.24654 7.06006L1.70654 8.60006M5.29988 2.44006H10.9465C11.2301 2.44006 11.4599 2.66989 11.4599 2.9534V5.52006C11.4599 5.80357 11.2301 6.0334 10.9465 6.0334H5.29988C5.01637 6.0334 4.78654 5.80357 4.78654 5.52006V2.9534C4.78654 2.66989 5.01637 2.44006 5.29988 2.44006ZM5.29988 8.08673H10.9465C11.2301 8.08673 11.4599 8.31656 11.4599 8.60006V11.1667C11.4599 11.4502 11.2301 11.6801 10.9465 11.6801H5.29988C5.01637 11.6801 4.78654 11.4502 4.78654 11.1667V8.60006C4.78654 8.31656 5.01637 8.08673 5.29988 8.08673Z" stroke="#616161" stroke-width="0.88" stroke-linecap="round" stroke-linejoin="round"/>
</svg>
