<svg width="13" height="13" viewBox="0 0 13 13" fill="none" xmlns="http://www.w3.org/2000/svg">
<g clip-path="url(#clip0_799_822)">
<path d="M11.46 2.86672C11.46 3.71724 9.39153 4.40672 6.83997 4.40672C4.28842 4.40672 2.21997 3.71724 2.21997 2.86672M11.46 2.86672C11.46 2.0162 9.39153 1.32672 6.83997 1.32672C4.28842 1.32672 2.21997 2.0162 2.21997 2.86672M11.46 2.86672V10.0534C11.46 10.4618 10.9732 10.8535 10.1068 11.1423C9.24039 11.4311 8.06527 11.5934 6.83997 11.5934C5.61467 11.5934 4.43956 11.4311 3.57314 11.1423C2.70672 10.8535 2.21997 10.4618 2.21997 10.0534V2.86672M2.21997 6.46005C2.21997 6.86849 2.70672 7.26019 3.57314 7.549C4.43956 7.83781 5.61467 8.00006 6.83997 8.00006C8.06527 8.00006 9.24039 7.83781 10.1068 7.549C10.9732 7.26019 11.46 6.86849 11.46 6.46005" stroke="#616161" stroke-width="0.88" stroke-linecap="round" stroke-linejoin="round"/>
</g>
<defs>
<clipPath id="clip0_799_822">
<rect width="12.32" height="12.32" fill="white" transform="translate(0.679932 0.300049)"/>
</clipPath>
</defs>
</svg>
