<svg width="13" height="13" viewBox="0 0 13 13" fill="none" xmlns="http://www.w3.org/2000/svg">
<g clip-path="url(#clip0_799_2220)">
<path d="M7.18745 11.85H4.71995C3.83787 11.85 3.39683 11.85 3.05992 11.6783C2.76356 11.5273 2.52262 11.2864 2.37162 10.99C2.19995 10.6531 2.19995 10.2121 2.19995 9.32998V3.86998C2.19995 2.98789 2.19995 2.54685 2.37162 2.20994C2.52262 1.91359 2.76356 1.67264 3.05992 1.52164C3.39683 1.34998 3.83787 1.34998 4.71995 1.34998H8.07995C8.96203 1.34998 9.40308 1.34998 9.73999 1.52164C10.0363 1.67264 10.2773 1.91359 10.4283 2.20994C10.6 2.54685 10.6 2.98789 10.6 3.86998V5.54998M10.0877 10.2593V7.90608C10.0877 7.47469 10.4375 7.12498 10.8688 7.12498C11.3002 7.12498 11.65 7.47469 11.65 7.90608V10.2507C11.65 11.1205 10.9448 11.8257 10.075 11.8257C9.2051 11.8257 8.49995 11.1205 8.49995 10.2507V8.67569M4.29995 3.97498H8.49995M4.29995 6.07498L8.49995 6.07498M4.29995 8.17498H6.39995" stroke="#616161" stroke-width="0.9" stroke-linecap="round"/>
</g>
<defs>
<clipPath id="clip0_799_2220">
<rect width="12.6" height="12.6" fill="white" transform="translate(0.100098 0.299988)"/>
</clipPath>
</defs>
</svg>
