<svg width="13" height="14" viewBox="0 0 13 14" fill="none" xmlns="http://www.w3.org/2000/svg">
<path d="M6.8397 10.9666H11.4597M9.08605 2.55927C9.2904 2.35492 9.56756 2.24011 9.85656 2.24011C10.1456 2.24011 10.4227 2.35492 10.6271 2.55927C10.8314 2.76362 10.9462 3.04078 10.9462 3.32978C10.9462 3.61878 10.8314 3.89594 10.6271 4.1003L4.46194 10.2659C4.33982 10.3881 4.18886 10.4774 4.02304 10.5257L2.54875 10.9559C2.50458 10.9687 2.45775 10.9695 2.41318 10.9581C2.36861 10.9467 2.32793 10.9235 2.29539 10.891C2.26286 10.8584 2.23966 10.8177 2.22824 10.7732C2.21683 10.7286 2.2176 10.6818 2.23048 10.6376L2.66065 9.1633C2.70902 8.99767 2.79836 8.8469 2.9204 8.72492L9.08605 2.55927Z" stroke="#616161" stroke-width="0.88" stroke-linecap="round" stroke-linejoin="round"/>
</svg>
