<svg width="13" height="14" viewBox="0 0 13 14" fill="none" xmlns="http://www.w3.org/2000/svg">
<g clip-path="url(#clip0_799_818)">
<path d="M10.4665 2.24002V4.29336M11.4932 3.26669H9.43985M2.25318 9.42669V10.4534M2.76651 9.94003H1.73985M5.30084 8.65669C5.25501 8.47904 5.16241 8.31692 5.03268 8.18719C4.90295 8.05746 4.74083 7.96486 4.56318 7.91903L1.41388 7.10694C1.36015 7.09169 1.31286 7.05933 1.27919 7.01477C1.24551 6.97021 1.22729 6.91588 1.22729 6.86002C1.22729 6.80417 1.24551 6.74984 1.27919 6.70528C1.31286 6.66072 1.36015 6.62836 1.41388 6.61311L4.56318 5.8005C4.74077 5.75472 4.90285 5.6622 5.03257 5.53256C5.1623 5.40293 5.25493 5.24091 5.30084 5.06336L6.11293 1.91406C6.12803 1.86012 6.16036 1.81259 6.20498 1.77874C6.24961 1.74489 6.30409 1.72656 6.3601 1.72656C6.41612 1.72656 6.47059 1.74489 6.51522 1.77874C6.55985 1.81259 6.59218 1.86012 6.60727 1.91406L7.41885 5.06336C7.46468 5.24101 7.55728 5.40313 7.68701 5.53286C7.81674 5.66259 7.97886 5.75519 8.15651 5.80102L11.3058 6.6126C11.36 6.62754 11.4077 6.65983 11.4418 6.70452C11.4758 6.74922 11.4942 6.80385 11.4942 6.86002C11.4942 6.9162 11.4758 6.97083 11.4418 7.01553C11.4077 7.06022 11.36 7.09251 11.3058 7.10745L8.15651 7.91903C7.97886 7.96486 7.81674 8.05746 7.68701 8.18719C7.55728 8.31692 7.46468 8.47904 7.41885 8.65669L6.60676 11.806C6.59166 11.8599 6.55934 11.9075 6.51471 11.9413C6.47008 11.9752 6.4156 11.9935 6.35959 11.9935C6.30357 11.9935 6.2491 11.9752 6.20447 11.9413C6.15984 11.9075 6.12752 11.8599 6.11242 11.806L5.30084 8.65669Z" stroke="#616161" stroke-width="0.88" stroke-linecap="round" stroke-linejoin="round"/>
</g>
<defs>
<clipPath id="clip0_799_818">
<rect width="12.32" height="12.32" fill="white" transform="translate(0.199951 0.700073)"/>
</clipPath>
</defs>
</svg>
